<?xml version="1.0" encoding="UTF-8"?>
<svg width="20px" height="20px" viewBox="0 0 20 20" version="1.1" xmlns="http://www.w3.org/2000/svg" xmlns:xlink="http://www.w3.org/1999/xlink">
    <!-- Generator: Sketch 51.3 (57544) - http://www.bohemiancoding.com/sketch -->
    <title>unplanned</title>
    <desc>Created with Sketch.</desc>
    <defs></defs>
    <g id="Employee(ipad)" stroke="none" stroke-width="1" fill="none" fill-rule="evenodd">
        <g id="Add-Employee(Ipad-portrait)" transform="translate(-399.000000, -54.000000)" fill="#778CA1">
            <g id="header" transform="translate(11.000000, 35.000000)">
                <g id="menu" transform="translate(163.000000, 0.000000)">
                    <g id="unplanned" transform="translate(225.000000, 19.000000)">
                        <g id="Group">
                            <path d="M4.97253793,1.17461526 L4.97253793,3.40638425 L5.75561477,3.40638425 L5.75561477,1.17461526 L4.97253793,1.17461526 Z M4.89423025,0 L5.83392245,0 C6.43939641,-1.11223761e-16 6.93023003,0.49083362 6.93023003,1.09630758 L6.93023003,3.48469194 C6.93023003,4.09016589 6.43939641,4.58099951 5.83392245,4.58099951 L4.89423025,4.58099951 C4.28875629,4.58099951 3.79792267,4.09016589 3.79792267,3.48469194 L3.79792267,1.09630758 C3.79792267,0.49083362 4.28875629,2.50326151e-16 4.89423025,0 Z" id="Rectangle" fill-rule="nonzero"></path>
                            <path d="M13.7821524,3.40638425 L14.5652292,3.40638425 L14.5652292,1.17461526 L13.7821524,1.17461526 L13.7821524,3.40638425 Z M13.7038447,0 L14.6435369,0 C15.2490109,-1.11223761e-16 15.7398445,0.49083362 15.7398445,1.09630758 L15.7398445,3.48469194 C15.7398445,4.09016589 15.2490109,4.58099951 14.6435369,4.58099951 L13.7038447,4.58099951 C13.0983707,4.58099951 12.6075371,4.09016589 12.6075371,3.48469194 L12.6075371,1.09630758 C12.6075371,0.49083362 13.0983707,2.50326151e-16 13.7038447,0 Z" id="Rectangle-Copy" fill-rule="nonzero"></path>
                            <polygon id="Line" fill-rule="nonzero" points="0.411115341 6.94980695 0.411115341 5.77519169 18.6568057 5.77519169 18.6568057 6.94980695"></polygon>
                            <path d="M18.351684,3.10896104 L15.7176943,3.10896104 L15.7176943,1.93434578 L18.9389916,1.93434578 C19.2633526,1.93434578 19.5262992,2.19729236 19.5262992,2.52165341 L19.5262992,18.8344019 C19.5262992,19.1587629 19.2633526,19.4217095 18.9389916,19.4217095 L0.619655429,19.4217095 C0.295294382,19.4217095 0.0323477995,19.1587629 0.0323477995,18.8344019 L0.0323477995,2.52165341 C0.0323477995,2.19729236 0.295294382,1.93434578 0.619655429,1.93434578 L3.80053728,1.93434578 L3.80053728,3.10896104 L1.20696306,3.10896104 L1.20696306,18.2470943 L18.351684,18.2470943 L18.351684,3.10896104 Z" id="Path-2" fill-rule="nonzero"></path>
                            <rect id="Rectangle" x="6.89107619" y="1.99684594" width="5.83392245" height="1.17461526"></rect>
                        </g>
                        <g id="Group-3" transform="translate(4.403230, 7.966230)" fill-rule="nonzero">
                            <g id="smile">
                                <path d="M0.606048678,6.50151489 C0.386971742,6.26231751 0.403282583,5.89081278 0.64247996,5.67173585 C0.881677337,5.45265891 1.25318207,5.46896975 1.47225901,5.70816713 C2.44409104,6.76925406 3.80037464,7.38207624 5.25416277,7.38207624 C6.79514553,7.38207624 8.22503719,6.69288553 9.20142237,5.51871896 C9.40881153,5.26932003 9.77911144,5.23526438 10.0285104,5.44265354 C10.2779093,5.6500427 10.3119649,6.02034261 10.1045758,6.26974154 C8.90787049,7.70885735 7.1488349,8.5566915 5.25416277,8.5566915 C3.46670449,8.5566915 1.79763752,7.80254151 0.606048678,6.50151489 Z" id="Path" transform="translate(5.346082, 6.931800) scale(1, -1) rotate(1.000000) translate(-5.346082, -6.931800) "></path>
                                <g id="Group-4" transform="translate(2.388384, 0.000000)">
                                    <path d="M0.451846212,1.0163141 C0.451846212,0.691953054 0.714792795,0.429006471 1.03915384,0.429006471 C1.36351489,0.429006471 1.62646147,0.691953054 1.62646147,1.0163141 L1.62646147,3.74076894 C1.62646147,4.06512999 1.36351489,4.32807657 1.03915384,4.32807657 C0.714792795,4.32807657 0.451846212,4.06512999 0.451846212,3.74076894 L0.451846212,1.0163141 Z" id="Line-3"></path>
                                    <path d="M4.32807657,1.0163141 C4.32807657,0.691953054 4.59102315,0.429006471 4.9153842,0.429006471 C5.23974524,0.429006471 5.50269183,0.691953054 5.50269183,1.0163141 L5.50269183,3.74076894 C5.50269183,4.06512999 5.23974524,4.32807657 4.9153842,4.32807657 C4.59102315,4.32807657 4.32807657,4.06512999 4.32807657,3.74076894 L4.32807657,1.0163141 Z" id="Line-3-Copy"></path>
                                </g>
                            </g>
                        </g>
                    </g>
                </g>
            </g>
        </g>
    </g>
</svg>